<svg xmlns="http://www.w3.org/2000/svg" viewBox="0 0 198.41 54.273"><defs><style>.a{fill:#e8b094;}.b{fill:#4a4a4d;font-size:42px;font-family:NanumPen, Nanum Pen Script;letter-spacing:0.014em;}</style></defs><g transform="translate(-137.59 -24.727)"><g transform="translate(-2.41 -8.273)"><path class="a" d="M44.547,44.547a22.267,22.267,0,0,1-11.137-2.98,22.277,22.277,0,0,0,0-38.587A22.279,22.279,0,1,1,44.547,44.547Zm-22.274,0A22.28,22.28,0,0,1,13.6,1.75,22.321,22.321,0,0,1,33.41,2.98a22.277,22.277,0,0,0,0,38.587A22.267,22.267,0,0,1,22.273,44.547Z" transform="translate(140 33)"/></g><text class="b" transform="translate(216 25)"><tspan x="0" y="39">Turn</tspan></text></g></svg>